<svg width="32" height="32" viewBox="0 0 32 32" fill="none" xmlns="http://www.w3.org/2000/svg">
<g clip-path="url(#clip0_1857_105588)">
<rect width="32" height="32" rx="16" fill="white"/>
<path d="M9.77167 27.3328C9.66809 30.4999 8.5815 33.3856 8.05115 34.4325C8.95497 34.2608 11.7083 35.3357 12.2677 35.6369C13.6446 35.9381 15.5379 37.9174 16.4845 37.7453C16.3984 36.1962 17.1729 35.809 17.3881 35.5078C18.1196 35.2066 18.851 34.303 19.0662 33.0982C20.0989 29.699 22.2933 24.6646 22.6806 23.7611C23.8854 21.6527 25.0041 17.8662 24.7459 16.3602C22.9387 11.1537 20.8303 9.81976 20.271 9.51856C19.4534 8.95919 17.6462 11.4551 17.216 12.1005C16.7426 13.6065 12.1386 18.1676 11.5362 18.6839C9.3848 20.1039 9.81508 24.1485 9.77167 27.3328Z" fill="white"/>
<path fill-rule="evenodd" clip-rule="evenodd" d="M17.6859 12.3339C17.6012 12.5674 17.4611 12.8211 17.299 13.0749C17.1144 13.3638 16.8825 13.6818 16.6227 14.0132C16.103 14.6761 15.4538 15.4151 14.8066 16.1165C13.5173 17.5136 12.1993 18.8009 11.8745 19.0793L11.8497 19.1005L11.8225 19.1185C10.9573 19.6895 10.5451 20.8371 10.3807 22.4012C10.2685 23.4689 10.2789 24.6211 10.2893 25.7705C10.294 26.2971 10.2988 26.823 10.2917 27.34L10.2916 27.3499C10.2033 30.0492 9.42433 32.5436 8.84305 33.9452C8.9351 33.9601 9.02702 33.9774 9.11735 33.9961C9.53748 34.0828 10.0041 34.2168 10.4499 34.3626C11.2782 34.6334 12.0886 34.9631 12.4493 35.1449C12.8514 35.245 13.2586 35.4476 13.6362 35.668C13.9874 35.8729 14.3454 36.1132 14.6792 36.3372C14.7288 36.3705 14.7779 36.4034 14.8264 36.4359C15.2116 36.6936 15.5539 36.916 15.8522 37.0652C15.8961 37.0871 15.937 37.1064 15.975 37.1233C16.0269 36.5913 16.1843 36.1908 16.3842 35.8782C16.5171 35.6702 16.6599 35.5155 16.7729 35.401C16.8151 35.3582 16.8348 35.3389 16.8522 35.3219C16.8685 35.3059 16.8827 35.292 16.9116 35.2625C16.9291 35.2447 16.9416 35.2313 16.951 35.2207C16.9555 35.2156 16.9587 35.2118 16.9609 35.209L16.9634 35.2059L17.0509 35.0834L17.1893 35.0264C17.7216 34.8072 18.362 34.0768 18.5531 33.0067L18.5585 32.9764L18.5675 32.9469C19.5481 29.7191 21.5589 25.0488 22.1139 23.7598C22.1492 23.6777 22.1786 23.6094 22.2015 23.556L22.2132 23.5286L22.228 23.5028C22.804 22.4949 23.3705 21.0627 23.7606 19.6922C23.955 19.0092 24.1025 18.3519 24.1858 17.7804C24.2669 17.2242 24.2817 16.7838 24.2385 16.4877C22.4707 11.4207 20.4495 10.2063 20.0236 9.97699L19.9993 9.96388L19.9919 9.95881C19.9673 9.9595 19.9003 9.97157 19.7659 10.0479C19.5407 10.1759 19.2662 10.4124 18.9738 10.7178C18.4278 11.288 17.9156 11.9954 17.6859 12.3339ZM20.0032 9.95993C20.0032 9.95993 20.0008 9.96011 19.9968 9.95883C20.0013 9.95902 20.0032 9.95993 20.0032 9.95993ZM20.5384 9.07164C20.0802 8.77755 19.5768 8.95778 19.2515 9.14262C18.8945 9.3455 18.537 9.66838 18.2217 9.99771C17.5839 10.6638 17.0053 11.4772 16.7822 11.8118L16.741 11.8736L16.7188 11.9445C16.6803 12.0667 16.586 12.2568 16.4214 12.5144C16.2612 12.7652 16.0511 13.0546 15.8033 13.3707C15.3079 14.0027 14.6796 14.7187 14.0413 15.4103C12.7911 16.7652 11.5376 17.9892 11.2191 18.2693C9.95577 19.1229 9.51299 20.6955 9.34514 22.2923C9.22657 23.4204 9.23763 24.6756 9.24802 25.8541C9.25251 26.3627 9.25687 26.8571 9.25063 27.3208C9.14907 30.3943 8.08978 33.2031 7.58618 34.1973L7.58935 34.2162C7.62427 34.4248 7.73241 34.6141 7.89434 34.7501C8.01112 34.7279 8.51777 34.9355 8.90684 35.0158C9.27465 35.0918 9.7008 35.2131 10.1263 35.3522C10.9864 35.6335 11.7807 35.9663 12.0203 36.0953L12.0846 36.1299L12.1559 36.1455C12.4194 36.2031 12.7394 36.3502 13.1114 36.5673C13.432 36.7544 13.7601 36.9745 14.0965 37.2002C14.1466 37.2338 14.1969 37.2675 14.2474 37.3013C14.626 37.5546 15.0206 37.8135 15.3865 37.9965C15.7306 38.1685 16.1609 38.3332 16.5771 38.2575L17.0293 38.1753L17.0038 37.7164C16.9662 37.04 17.1162 36.6663 17.2614 36.4391C17.3382 36.319 17.4241 36.2236 17.514 36.1324C17.5264 36.1199 17.5415 36.105 17.5585 36.0883C17.6017 36.0457 17.6569 35.9914 17.7092 35.9341C18.5812 35.5132 19.3371 34.4867 19.5725 33.2211C20.5375 30.056 22.514 25.464 23.0707 24.1706C23.1002 24.1019 23.1258 24.0426 23.147 23.9932C23.7703 22.895 24.3593 21.3923 24.7621 19.9773C24.9657 19.2619 25.1247 18.5584 25.2162 17.9305C25.3063 17.3126 25.3369 16.7295 25.2585 16.2722L25.2513 16.23L25.2372 16.1895C23.4126 10.9328 21.2524 9.46182 20.5384 9.07164Z" fill="#333333"/>
<path d="M10.3721 5.12361L16.2305 25.8399L26.6121 22.7154L20.5433 2.02789L10.3721 5.12361Z" fill="white"/>
<path fill-rule="evenodd" clip-rule="evenodd" d="M20.7465 1.65134C20.847 1.70561 20.9216 1.79782 20.9538 1.90744L27.0226 22.595C27.0888 22.8206 26.9605 23.0574 26.7353 23.1252L16.3537 26.2497C16.2438 26.2827 16.1253 26.2703 16.0247 26.2151C15.9241 26.16 15.8498 26.0668 15.8186 25.9564L9.96022 5.24005C9.89681 5.01582 10.0245 4.78208 10.2474 4.71423L20.4186 1.61852C20.5279 1.58525 20.6459 1.59707 20.7465 1.65134ZM10.8979 5.41083L16.5237 25.3047L26.0818 22.4281L20.2543 2.56313L10.8979 5.41083Z" fill="#333333"/>
<path d="M16.3992 27.3066C16.3144 27.3066 16.2327 27.2778 16.1661 27.2263C16.0874 27.1643 16.0359 27.0734 16.0238 26.9735L13.4806 5.4428C13.4685 5.34289 13.4973 5.24298 13.5593 5.16275C13.6214 5.08403 13.7137 5.03256 13.8137 5.02196L24.604 3.80033C24.6191 3.79882 24.6328 3.7973 24.6464 3.7973C24.8356 3.7973 24.9991 3.9396 25.0218 4.13185L27.5347 25.5445C27.5589 25.7504 27.4121 25.9381 27.2062 25.9638L16.4461 27.302C16.431 27.3066 16.4144 27.3066 16.3992 27.3066Z" fill="white"/>
<path d="M24.6457 4.17664L27.1586 25.5878L16.3985 26.926L13.8553 5.39827L24.6457 4.17664ZM24.6472 3.41974C24.6184 3.41974 24.5897 3.42125 24.5609 3.42428L13.7705 4.64591C13.5707 4.66862 13.3876 4.77005 13.2619 4.92748C13.1363 5.08492 13.0803 5.28625 13.103 5.48607L15.6461 27.0153C15.6704 27.2151 15.7718 27.3983 15.9307 27.5224C16.064 27.6269 16.229 27.6829 16.397 27.6829C16.4288 27.6829 16.4591 27.6814 16.4908 27.6768L27.2509 26.3386C27.6642 26.2871 27.9579 25.9117 27.9094 25.5L25.3965 4.08884C25.3526 3.70433 25.0256 3.41974 24.6472 3.41974Z" fill="#333333"/>
<path d="M17.6492 25.2488L25.7753 24.1816L23.5076 5.99634L15.5117 6.65787L17.6492 25.2488Z" fill="#FFF4FD"/>
<path d="M23.5063 6.81764C23.1627 6.81764 22.8524 6.60117 22.7343 6.27873C22.6586 6.07285 22.6677 5.84881 22.76 5.6505C22.8524 5.4522 23.0174 5.30082 23.2232 5.22513C23.3141 5.19182 23.4094 5.17517 23.5063 5.17517C23.85 5.17517 24.1603 5.39164 24.2784 5.71408C24.4343 6.13946 24.2148 6.61328 23.7894 6.7692C23.6971 6.80099 23.6017 6.81764 23.5063 6.81764Z" fill="#9F2089"/>
<path d="M23.5056 5.47686C23.7175 5.47686 23.9158 5.60704 23.993 5.81746C24.0914 6.08692 23.9537 6.38513 23.6842 6.48353C23.6252 6.50472 23.5646 6.51532 23.5056 6.51532C23.2936 6.51532 23.0953 6.38513 23.0181 6.17472C22.9197 5.90526 23.0575 5.60704 23.3269 5.50865C23.386 5.48745 23.445 5.47686 23.5056 5.47686ZM23.5056 4.87134C23.3739 4.87134 23.2437 4.89404 23.1196 4.93946C22.838 5.0424 22.6124 5.24979 22.4853 5.52227C22.3596 5.79475 22.346 6.10054 22.4489 6.38211C22.6109 6.82414 23.0348 7.12084 23.5056 7.12084C23.6373 7.12084 23.7675 7.09813 23.8931 7.05272C24.1747 6.94978 24.4002 6.74239 24.5259 6.46991C24.6515 6.19742 24.6651 5.89164 24.5622 5.61007C24.4002 5.16804 23.9749 4.87134 23.5056 4.87134Z" fill="white"/>
<path d="M15.5122 7.48004C15.1686 7.48004 14.8582 7.26357 14.7401 6.94113C14.5842 6.51575 14.8037 6.04194 15.2291 5.88601C15.3199 5.85271 15.4153 5.83606 15.5122 5.83606C15.8558 5.83606 16.1661 6.05253 16.2842 6.37497C16.3599 6.58085 16.3508 6.80489 16.2585 7.0032C16.1661 7.20302 16.0011 7.3544 15.7953 7.42857C15.7029 7.46339 15.6091 7.48004 15.5122 7.48004Z" fill="#9F2089"/>
<path d="M15.5106 6.13878C15.7226 6.13878 15.9209 6.26897 15.9981 6.47939C16.0965 6.74884 15.9587 7.04706 15.6893 7.14546C15.6302 7.16665 15.5697 7.17725 15.5106 7.17725C15.2987 7.17725 15.1004 7.04706 15.0232 6.83664C14.9248 6.56719 15.0626 6.26897 15.332 6.17057C15.3911 6.14938 15.4516 6.13878 15.5106 6.13878ZM15.5106 5.53326C15.3789 5.53326 15.2488 5.55597 15.1246 5.60139C14.5418 5.81483 14.2421 6.46274 14.4555 7.04403C14.6175 7.48606 15.0414 7.78277 15.5122 7.78277C15.6439 7.78277 15.774 7.76006 15.8982 7.71465C16.481 7.5012 16.7807 6.8533 16.5673 6.272C16.4053 5.82997 15.9799 5.53326 15.5106 5.53326Z" fill="white"/>
<path d="M25.7738 25.0035C25.4301 25.0035 25.1198 24.787 25.0017 24.4646C24.8458 24.0392 25.0653 23.5654 25.4907 23.4095C25.5815 23.3761 25.6769 23.3595 25.7738 23.3595C26.1174 23.3595 26.4277 23.576 26.5458 23.8984C26.7017 24.3238 26.4822 24.7976 26.0569 24.9535C25.9645 24.9868 25.8691 25.0035 25.7738 25.0035Z" fill="#9F2089"/>
<path d="M25.7737 23.6624C25.9856 23.6624 26.1839 23.7926 26.2611 24.003C26.3595 24.2725 26.2217 24.5707 25.9523 24.6691C25.8932 24.6903 25.8327 24.7009 25.7737 24.7009C25.5617 24.7009 25.3634 24.5707 25.2862 24.3603C25.1878 24.0908 25.3256 23.7926 25.595 23.6942C25.6526 23.673 25.7131 23.6624 25.7737 23.6624ZM25.7737 23.0569C25.642 23.0569 25.5118 23.0796 25.3861 23.125C25.1046 23.2279 24.879 23.4353 24.7534 23.7078C24.6262 23.9803 24.6141 24.2861 24.717 24.5677C24.879 25.0097 25.3029 25.3064 25.7737 25.3064C25.9054 25.3064 26.0355 25.2837 26.1612 25.2383C26.4428 25.1353 26.6683 24.9279 26.794 24.6555C26.9211 24.383 26.9332 24.0772 26.8303 23.7956C26.6668 23.3536 26.2429 23.0569 25.7737 23.0569Z" fill="white"/>
<path d="M17.6461 26.0703C17.3025 26.0703 16.9921 25.8538 16.8741 25.5314C16.7984 25.3255 16.8075 25.1015 16.8998 24.9032C16.9921 24.7034 17.1571 24.552 17.363 24.4778C17.4538 24.4445 17.5492 24.4279 17.6461 24.4279C17.9897 24.4279 18.3001 24.6443 18.4181 24.9668C18.4938 25.1726 18.4847 25.3967 18.3924 25.595C18.3001 25.7948 18.1351 25.9462 17.9292 26.0204C17.8383 26.0537 17.743 26.0703 17.6461 26.0703Z" fill="#9F2089"/>
<path d="M17.6484 24.7294C17.8603 24.7294 18.0586 24.8595 18.1358 25.07C18.2342 25.3394 18.0965 25.6376 17.827 25.736C17.768 25.7572 17.7074 25.7678 17.6484 25.7678C17.4365 25.7678 17.2382 25.6376 17.1609 25.4272C17.0626 25.1578 17.2003 24.8595 17.4698 24.7611C17.5288 24.74 17.5894 24.7294 17.6484 24.7294ZM17.6484 24.1238C17.5167 24.1238 17.3865 24.1465 17.2609 24.192C16.678 24.4054 16.3783 25.0518 16.5918 25.6346C16.7537 26.0766 17.1776 26.3733 17.6484 26.3733C17.7801 26.3733 17.9103 26.3506 18.0359 26.3052C18.3175 26.2023 18.543 25.9949 18.6687 25.7224C18.7943 25.4499 18.808 25.1441 18.705 24.8626C18.543 24.4205 18.1192 24.1238 17.6484 24.1238Z" fill="white"/>
<path d="M20.6155 19.8203C22.9129 19.8203 24.7754 17.9578 24.7754 15.6603C24.7754 13.3629 22.9129 11.5004 20.6155 11.5004C18.318 11.5004 16.4556 13.3629 16.4556 15.6603C16.4556 17.9578 18.318 19.8203 20.6155 19.8203Z" fill="#9F2089"/>
<path d="M13.4397 27.9999C13.8805 27.4948 14.242 26.894 14.4989 26.2378C15.1601 24.5531 15.1062 22.6233 15.4202 20.8078C15.5248 20.2014 17.9034 16.3694 18.4092 15.5547C18.9356 14.705 19.2718 13.6359 18.7073 12.6996C17.6259 10.9043 16.2812 13.0092 15.5486 14.0488C15.0555 14.7492 12.4625 19.4727 11.5 19.9999" fill="white"/>
<path d="M19.5764 12.6872C20.4109 13.8523 19.8588 15.1264 19.236 15.9724C18.9505 16.3593 18.1393 17.459 17.3856 18.5325C17.0083 19.0698 16.6486 19.5961 16.3772 20.0214C16.2411 20.2345 16.1308 20.4168 16.0524 20.5594C15.9847 20.6825 15.9581 20.746 15.9501 20.7652C15.9475 20.7714 15.9468 20.773 15.9473 20.7705C15.8311 21.3358 15.7629 21.8993 15.6921 22.4839C15.6572 22.7718 15.6217 23.0649 15.5795 23.3659C15.4553 24.2534 15.276 25.1694 14.8717 26.0364C14.5561 26.7147 14.1122 27.3354 13.5707 27.8574C13.3717 28.0493 13.0513 28.047 12.8552 27.8524C12.659 27.6577 12.6613 27.3443 12.8604 27.1525C13.314 26.7151 13.6864 26.1943 13.9507 25.6261C14.2927 24.8929 14.4565 24.0918 14.5769 23.2316C14.6137 22.9691 14.6468 22.6963 14.6806 22.4183C14.7543 21.8115 14.831 21.1798 14.9551 20.5758L15.1413 20.1277L18.4149 15.3938C18.9804 14.6256 19.1872 13.8689 18.7475 13.2551C18.4978 12.9064 18.4095 12.8848 18.4095 12.8848C18.4095 12.8848 17.7792 12.8415 17.5101 13.0152C17.0093 13.3384 16.5298 13.9148 16.1183 14.4096L16.1183 14.4096L16.1183 14.4097C16.0739 14.463 16.0304 14.5154 15.9876 14.5664C15.9132 14.6554 15.7939 14.8036 15.6421 14.9922L15.6421 14.9922C15.2734 15.4504 14.7128 16.1471 14.136 16.8133C13.7233 17.2899 13.2876 17.7687 12.882 18.163C12.4911 18.543 12.0804 18.8931 11.7218 19.0583C11.469 19.1748 11.1675 19.0688 11.0484 18.8216C10.9293 18.5743 11.2472 18.6164 11.5 18.4999C11.6847 18.4148 11.7776 17.8411 12.1686 17.461C12.5447 17.0952 12.9593 16.6406 13.3637 16.1735C13.93 15.5195 14.4486 14.8748 14.8145 14.4199L14.8145 14.4198L14.8146 14.4198C14.9783 14.2162 15.1115 14.0507 15.2047 13.9393C15.245 13.8911 15.2883 13.8388 15.3341 13.7835L15.3341 13.7835C15.7275 13.3081 16.3111 12.6031 16.9527 12.189C17.5595 11.9681 18.9338 11.7584 19.5764 12.6872Z" fill="#333333"/>
</g>
<defs>
<clipPath id="clip0_1857_105588">
<rect width="32" height="32" rx="16" fill="white"/>
</clipPath>
</defs>
</svg>
