<svg width="32" height="32" viewBox="0 0 32 32" fill="none" xmlns="http://www.w3.org/2000/svg">
<g clip-path="url(#clip0_1857_105670)">
<path d="M16 0C24.8 0 32 7.2 32 16C32 24.8 24.8 32 16 32C7.2 32 0 24.8 0 16C0 7.2 7.2 0 16 0Z" fill="white"/>
<mask id="mask0_1857_105670" style="mask-type:alpha" maskUnits="userSpaceOnUse" x="0" y="0" width="32" height="32">
<path d="M16 0C24.8 0 32 7.2 32 16C32 24.8 24.8 32 16 32C7.2 32 0 24.8 0 16C0 7.2 7.2 0 16 0Z" fill="white"/>
</mask>
<g mask="url(#mask0_1857_105670)">
<path d="M2.06632 21.5879H0.9986C0.58954 21.5879 0.19718 21.4254 -0.0920697 21.1362C-0.381319 20.8469 -0.543823 20.4546 -0.543823 20.0456V7.99867C-0.543823 7.58961 -0.381319 7.1973 -0.0920697 6.90805C0.19718 6.6188 0.58954 6.4563 0.9986 6.4563H15.0076C15.4167 6.4563 15.8089 6.6188 16.0982 6.90805C16.3874 7.1973 16.55 7.58961 16.55 7.99867V20.0456C16.55 20.4546 16.3874 20.8469 16.0982 21.1362C15.8089 21.4254 15.4167 21.5879 15.0076 21.5879H9.97897" fill="white"/>
<path d="M16.4891 9.67381C16.3834 7.47394 16.7226 7.83098 15.5957 6.5788L15.0081 9.67381C14.7965 11.2451 14.585 12.9212 14.056 14.3878C13.5271 15.8544 12.575 17.1115 11.3056 18.0543C10.1419 18.7875 8.97825 19.1018 7.60302 19.2066C6.54515 19.3113 5.48728 19.3113 4.4294 19.3113C1.25579 19.3113 1.86293 19.2813 -0.597046 19.3558C-0.447985 19.9335 -0.419808 22.0504 1.48436 22.0504L13.5271 22.035C13.9502 22.035 15.4313 21.3017 15.8544 21.0922C16.5949 20.5684 16.9123 18.4733 16.9123 18.3685C16.7007 14.5973 16.7007 13.445 16.4891 9.67381Z" fill="#FFF4FD"/>
<path d="M15.0078 22.0443H9.97912C9.85809 22.0443 9.74206 21.9962 9.65648 21.9106C9.57091 21.825 9.5228 21.709 9.5228 21.5879C9.52513 21.4677 9.57397 21.3529 9.65905 21.2678C9.74412 21.1828 9.85882 21.134 9.97912 21.1316H15.0078C15.1504 21.1316 15.2916 21.1035 15.4233 21.049C15.5551 20.9944 15.6749 20.9144 15.7757 20.8135C15.8766 20.7127 15.9565 20.5929 16.0111 20.4612C16.0657 20.3294 16.0938 20.1882 16.0938 20.0456V7.99869C16.0938 7.85607 16.0657 7.71485 16.0111 7.58309C15.9565 7.45132 15.8766 7.33158 15.7757 7.23074C15.6749 7.12989 15.5551 7.04991 15.4233 6.99533C15.2916 6.94076 15.1504 6.91264 15.0078 6.91264H0.998745C0.710708 6.91264 0.434381 7.02706 0.230708 7.23074C0.0270355 7.43441 -0.0873574 7.71065 -0.0873574 7.99869V20.0456C-0.0873574 20.3336 0.0270355 20.6099 0.230708 20.8135C0.434381 21.0172 0.710708 21.1316 0.998745 21.1316H2.06647C2.18676 21.134 2.30146 21.1828 2.38654 21.2678C2.47161 21.3529 2.52045 21.4677 2.52279 21.5879C2.52279 21.709 2.47479 21.825 2.38921 21.9106C2.30363 21.9962 2.18749 22.0443 2.06647 22.0443H0.998745C0.46866 22.0443 -0.0397319 21.8337 -0.414558 21.4589C-0.789385 21.084 -1 20.5757 -1 20.0456V7.99869C-1 7.4686 -0.789385 6.96024 -0.414558 6.58541C-0.0397319 6.21059 0.46866 6 0.998745 6H15.0078C15.5379 6 16.0463 6.21059 16.4211 6.58541C16.7959 6.96024 17.0064 7.4686 17.0064 7.99869V20.0456C17.0064 20.5757 16.7959 21.084 16.4211 21.4589C16.0463 21.8337 15.5379 22.0443 15.0078 22.0443Z" fill="#333333"/>
<path d="M7.87645 17.6687C10.2377 17.6687 12.1518 15.7545 12.1518 13.3933C12.1518 11.0321 10.2377 9.11792 7.87645 9.11792C5.51523 9.11792 3.60107 11.0321 3.60107 13.3933C3.60107 15.7545 5.51523 17.6687 7.87645 17.6687Z" fill="#9F2089"/>
<path d="M7.19458 15.0403C7.14417 15.0409 7.09415 15.0309 7.04782 15.0109C7.00148 14.9909 6.95987 14.9614 6.92555 14.9242L5.84931 13.8478C5.7784 13.7741 5.73877 13.6755 5.73877 13.5729C5.73877 13.4703 5.7784 13.3717 5.84931 13.298C5.88504 13.2617 5.92756 13.2329 5.9744 13.2133C6.02124 13.1936 6.07145 13.1835 6.12219 13.1835C6.17293 13.1835 6.22315 13.1936 6.26999 13.2133C6.31683 13.2329 6.35934 13.2617 6.39508 13.298L7.1638 14.0724L9.35474 11.8577C9.42789 11.7863 9.52575 11.7463 9.62763 11.7463C9.7295 11.7463 9.82737 11.7863 9.90051 11.8577C9.93654 11.8937 9.96508 11.9365 9.98459 11.9837C10.0041 12.0309 10.0141 12.0815 10.0141 12.1326C10.0141 12.1837 10.0041 12.2343 9.98459 12.2815C9.96508 12.3287 9.93654 12.3715 9.90051 12.4075L7.43293 14.8932C7.37517 14.9712 7.28981 15.0239 7.19458 15.0403Z" fill="white"/>
<path d="M25.0012 22.0443H24.2346C24.1136 22.0443 23.9976 21.9962 23.912 21.9106C23.8264 21.825 23.7783 21.709 23.7783 21.588C23.7783 21.4669 23.8264 21.3509 23.912 21.2653C23.9976 21.1797 24.1136 21.1316 24.2346 21.1316H25.0012C25.2893 21.1316 25.5655 21.0172 25.7691 20.8135C25.9728 20.6099 26.0873 20.3336 26.0873 20.0456V15.7379C26.0882 15.4895 26.0045 15.2481 25.85 15.0534L22.5554 11.0287C22.4548 10.9027 22.327 10.8012 22.1816 10.7316C22.0362 10.6621 21.8769 10.6263 21.7157 10.6271H18.0652C17.7779 10.6295 17.503 10.7447 17.2998 10.9479C17.0966 11.151 16.9816 11.4259 16.9792 11.7132V20.0456C16.9792 20.1666 16.9311 20.2827 16.8455 20.3683C16.7599 20.4538 16.6439 20.5019 16.5228 20.5019C16.4018 20.5019 16.2857 20.4538 16.2001 20.3683C16.1145 20.2827 16.0665 20.1666 16.0665 20.0456V11.7132C16.0689 11.1838 16.2802 10.6768 16.6545 10.3025C17.0288 9.92823 17.5358 9.71688 18.0652 9.71448H21.7157C22.0129 9.71519 22.3063 9.78188 22.5746 9.90972C22.8429 10.0376 23.0794 10.2233 23.2672 10.4537L26.5528 14.4785C26.8426 14.8342 27.0006 15.2791 27 15.7379V20.0456C27 20.5757 26.7894 21.084 26.4145 21.4589C26.0397 21.8337 25.5313 22.0443 25.0012 22.0443Z" fill="#333333"/>
<path d="M26.1327 15.3363H21.031C20.91 15.3363 20.794 15.2883 20.7084 15.2027C20.6228 15.1171 20.5747 15.0011 20.5747 14.88C20.5747 14.759 20.6228 14.6429 20.7084 14.5574C20.794 14.4718 20.91 14.4237 21.031 14.4237H26.1327C26.2537 14.4237 26.3698 14.4718 26.4554 14.5574C26.541 14.6429 26.589 14.759 26.589 14.88C26.5867 15.0003 26.5378 15.115 26.4527 15.2001C26.3677 15.2852 26.253 15.334 26.1327 15.3363Z" fill="#333333"/>
<path d="M6.00011 20.0364C5.38341 20.0459 4.79456 20.295 4.35843 20.7312C3.9223 21.1673 3.67311 21.7561 3.6637 22.3728C3.6637 22.6796 3.7242 22.9834 3.84161 23.2669C3.95903 23.5504 4.13112 23.8079 4.34807 24.0249C4.56502 24.2418 4.8225 24.4139 5.10597 24.5313C5.38943 24.6487 5.6933 24.7092 6.00011 24.7092C6.30693 24.7092 6.61069 24.6487 6.89415 24.5313C7.17761 24.4139 7.43521 24.2418 7.65216 24.0249C7.86911 23.8079 8.0412 23.5504 8.15862 23.2669C8.27603 22.9834 8.33642 22.6796 8.33642 22.3728C8.33165 21.7546 8.08405 21.1631 7.64693 20.726C7.2098 20.2889 6.61828 20.0412 6.00011 20.0364Z" fill="white"/>
<path d="M5.99979 25.1473C5.4631 25.1364 4.94146 24.9681 4.4997 24.6631C4.05793 24.3582 3.71549 23.9301 3.51509 23.4321C3.31468 22.9341 3.2651 22.3882 3.37248 21.8622C3.47987 21.3363 3.73945 20.8535 4.11902 20.4739C4.4986 20.0944 4.98142 19.8347 5.50737 19.7273C6.03332 19.62 6.57921 19.6696 7.0772 19.87C7.57519 20.0704 8.00328 20.4127 8.30824 20.8545C8.6132 21.2963 8.78157 21.8179 8.79241 22.3546C8.79241 23.0953 8.4982 23.8056 7.97447 24.3293C7.45074 24.8531 6.74045 25.1473 5.99979 25.1473ZM5.99979 20.4746C5.7346 20.4732 5.47234 20.5297 5.23119 20.64C4.99005 20.7503 4.77578 20.9119 4.60342 21.1134C4.35997 21.3834 4.20002 21.7183 4.14297 22.0773C4.08593 22.4364 4.13424 22.8043 4.28201 23.1364C4.42978 23.4686 4.67064 23.7508 4.97551 23.9489C5.28039 24.1469 5.63623 24.2523 5.99979 24.2523C6.36335 24.2523 6.71907 24.1469 7.02395 23.9489C7.32882 23.7508 7.56968 23.4686 7.71745 23.1364C7.86522 22.8043 7.91353 22.4364 7.85649 22.0773C7.79944 21.7183 7.6396 21.3834 7.39616 21.1134C7.22208 20.9152 7.0071 20.7571 6.76604 20.65C6.52498 20.5428 6.26355 20.4892 5.99979 20.4928V20.4746Z" fill="#333333"/>
<path d="M20.2829 20.0364C19.7431 20.0297 19.2173 20.2087 18.7937 20.5434C18.3701 20.8781 18.0744 21.3482 17.9561 21.8749C17.8378 22.4017 17.9042 22.953 18.144 23.4367C18.3838 23.9204 18.7824 24.307 19.2732 24.5317C19.764 24.7565 20.3173 24.8057 20.8401 24.6713C21.363 24.5368 21.8237 24.2267 22.1451 23.793C22.4666 23.3593 22.6293 22.8283 22.6059 22.289C22.5826 21.7496 22.3746 21.2347 22.0168 20.8304C21.8002 20.5831 21.5338 20.3845 21.235 20.2477C20.9361 20.1108 20.6116 20.0388 20.2829 20.0364Z" fill="white"/>
<path d="M20.283 25.1472C19.5423 25.1472 18.8319 24.853 18.3082 24.3292C17.7845 23.8055 17.4902 23.0952 17.4902 22.3545C17.4943 21.6791 17.7478 21.029 18.2021 20.5292C18.4634 20.237 18.7844 20.0043 19.1434 19.8468C19.5024 19.6894 19.891 19.6109 20.283 19.6166C20.6743 19.6149 21.0616 19.6953 21.42 19.8525C21.7784 20.0097 22.0998 20.2402 22.3637 20.5292C22.7213 20.9302 22.9553 21.4261 23.0373 21.9571C23.1193 22.4881 23.0458 23.0315 22.8258 23.5216C22.6058 24.0118 22.2487 24.4279 21.7974 24.7195C21.3462 25.0112 20.8203 25.1661 20.283 25.1654V25.1472ZM20.283 20.4744C20.0168 20.4754 19.7539 20.5328 19.5116 20.643C19.2693 20.7531 19.0532 20.9134 18.8775 21.1133C18.5763 21.4572 18.408 21.8974 18.4029 22.3545C18.4137 22.7106 18.5285 23.0557 18.7332 23.3474C18.9378 23.639 19.2234 23.8644 19.5546 23.9957C19.8858 24.127 20.2481 24.1585 20.597 24.0863C20.9459 24.0142 21.2661 23.8415 21.518 23.5895C21.7699 23.3376 21.9426 23.0175 22.0148 22.6686C22.087 22.3197 22.0554 21.9573 21.9241 21.6261C21.7928 21.295 21.5675 21.0094 21.2758 20.8048C20.9842 20.6001 20.6391 20.4853 20.283 20.4744Z" fill="#333333"/>
</g>
</g>
<defs>
<clipPath id="clip0_1857_105670">
<rect width="32" height="32" fill="white"/>
</clipPath>
</defs>
</svg>
