<svg width="32" height="32" viewBox="0 0 32 32" fill="none" xmlns="http://www.w3.org/2000/svg">
<g clip-path="url(#clip0_1857_105627)">
<path d="M16 0C24.8 0 32 7.2 32 16C32 24.8 24.8 32 16 32C7.2 32 0 24.8 0 16C0 7.2 7.2 0 16 0Z" fill="white"/>
<mask id="mask0_1857_105627" style="mask-type:alpha" maskUnits="userSpaceOnUse" x="0" y="0" width="32" height="32">
<path d="M16 0C24.8 0 32 7.2 32 16C32 24.8 24.8 32 16 32C7.2 32 0 24.8 0 16C0 7.2 7.2 0 16 0Z" fill="white"/>
</mask>
<g mask="url(#mask0_1857_105627)">
<path d="M8.70082 10H22.3008C23.9008 10 25.2008 11.2 25.3008 12.8L26.1008 29.5C26.2008 31.4 24.7008 32.9 22.8008 32.9H8.30082C6.40082 32.9 4.90082 31.3 5.00082 29.5L5.70082 12.8C5.80082 11.3 7.10082 10 8.70082 10Z" fill="white"/>
<path d="M24.4992 13.6006C24.5992 12.5006 24.5992 13.1006 24.5992 12.0006C24.5992 12.0006 24.9992 14.3006 24.9992 12.4006C24.9992 10.1006 25.0992 12.8006 25.0992 13.1006C25.0992 12.5006 25.0992 13.7006 25.0992 13.1006C25.1992 13.7006 25.1992 14.3006 25.2992 14.9006C25.3992 17.0006 25.4992 19.2006 25.5992 21.3006C25.7992 24.9006 25.7992 26.0006 25.9992 29.6006C25.9992 29.7006 25.6992 31.7006 24.9992 32.2006C24.5992 32.4006 23.1992 33.1006 22.7992 33.1006L7.69922 32.6006C5.89922 32.6006 5.89922 30.1006 5.19922 30.0006C8.19922 30.4006 11.1992 30.5006 14.1992 30.5006C15.1992 30.5006 16.1992 30.5006 17.1992 30.4006C18.4992 30.3006 19.5992 30.0006 20.6992 29.3006C21.8992 28.4006 22.7992 27.2006 23.2992 25.8006C23.7992 24.4006 23.9992 22.8006 24.1992 21.3006C24.1992 18.7006 24.3992 16.2006 24.4992 13.6006Z" fill="#FFF4FD"/>
<path d="M22.2008 10.9C23.3008 10.9 24.2008 11.8 24.2008 12.9L25.0008 29.6C25.0008 30.3 24.8008 30.9 24.3008 31.3C23.8008 31.7 23.2008 32 22.6008 32H8.30082C7.60082 32 7.00082 31.7 6.60082 31.3C6.10082 30.8 5.90082 30.2 5.90082 29.6L6.60082 12.9C6.60082 11.8 7.50082 10.9 8.60082 10.9H22.2008ZM22.2008 10H8.70082C7.10082 10 5.80082 11.3 5.70082 12.8L5.00082 29.6C4.90082 31.4 6.40082 33 8.30082 33H22.7008C24.6008 33 26.1008 31.4 26.0008 29.6L25.2008 12.9C25.1008 11.3 23.8008 10 22.2008 10Z" fill="#333333"/>
<path d="M11.2008 14.3C11.7008 14.3 12.1008 13.9 12.1008 13.4C12.1008 12.9 11.7008 12.5 11.2008 12.5C10.7008 12.5 10.3008 12.9 10.3008 13.4C10.3008 13.9 10.7008 14.3 11.2008 14.3Z" fill="#FFF4FD"/>
<path d="M19.7008 14.2004C20.2008 14.2004 20.6008 13.8004 20.6008 13.3004C20.6008 12.8004 20.2008 12.4004 19.7008 12.4004C19.2008 12.4004 18.8008 12.8004 18.8008 13.3004C18.8008 13.8004 19.2008 14.2004 19.7008 14.2004Z" fill="#FFF4FD"/>
<path fill-rule="evenodd" clip-rule="evenodd" d="M15.4992 5.5C13.3754 5.5 11.6992 7.17614 11.6992 9.3V12.9997L10.6992 13M10.6992 13V9.3C10.6992 6.62386 12.8231 4.5 15.4992 4.5C18.1754 4.5 20.2992 6.62386 20.2992 9.3V13C20.2992 13.2761 20.0754 13.5 19.7992 13.5C19.5231 13.5 19.2992 13.2761 19.2992 13V9.3C19.2992 7.17614 17.6231 5.5 15.4992 5.5" fill="#333333"/>
<path d="M23.5016 23.7992C22.9016 23.4992 22.2016 23.3992 21.4016 23.2992C20.6016 23.1992 19.0016 23.1992 19.0016 23.1992C18.2016 23.1992 17.4016 23.2992 16.5016 23.2992C16.4016 23.2992 16.4016 23.2992 16.3016 23.2992C14.9016 23.3992 13.7016 22.2992 13.7016 20.8992C13.6016 19.4992 14.7016 18.2992 16.0016 18.1992C16.1016 18.1992 16.2016 18.1992 16.3016 18.1992C16.3016 18.1992 16.7016 18.1992 16.8016 18.1992C18.6016 18.2992 20.4016 18.3992 22.3016 18.8992L22.6016 18.9992C23.6016 19.2992 24.5016 19.5992 25.5016 20.2992C31.8016 24.5992 25.0016 32.2992 24.7016 32.3992C25.0016 32.1992 26.6016 28.3992 25.5016 25.6992C25.4016 25.3992 25.3016 25.1992 25.1016 24.8992H25.0016L23.5016 23.7992ZM23.5016 23.7992C24.1016 24.0992 24.6016 24.3992 25.0016 24.8992L23.5016 23.7992Z" fill="#9F2089" stroke="#9F2089" stroke-width="0.2511"/>
<path d="M18.7984 26.3002C19.2984 26.6002 19.8984 26.2002 19.8984 25.7002V16.0002C19.8984 15.5002 19.2984 15.1002 18.7984 15.4002V26.3002ZM18.7984 26.3002L10.3984 21.5002C9.89844 21.2002 9.89844 20.6002 10.3984 20.3002L18.7984 15.4002V26.3002Z" fill="#9F2089" stroke="#9F2089" stroke-width="0.2511"/>
</g>
</g>
<defs>
<clipPath id="clip0_1857_105627">
<rect width="32" height="32" fill="white"/>
</clipPath>
</defs>
</svg>
